<?xml version="1.0" encoding="utf-8"?>
<!-- Generator: Adobe Illustrator 16.0.0, SVG Export Plug-In . SVG Version: 6.00 Build 0)  -->
<!DOCTYPE svg PUBLIC "-//W3C//DTD SVG 1.1 Tiny//EN" "http://www.w3.org/Graphics/SVG/1.1/DTD/svg11-tiny.dtd">
<svg version="1.1" baseProfile="tiny" id="Layer_1" xmlns="http://www.w3.org/2000/svg" xmlns:xlink="http://www.w3.org/1999/xlink"
	 x="0px" y="0px" width="187.555px" height="49.162px" viewBox="0 0 187.555 49.162" xml:space="preserve">
<g>
	<g>
		<path fill="#E76D2C" d="M61.791,27.848c-0.029,0.205-0.043,0.424-0.043,0.656c0,1.612,0.57,2.986,1.711,4.123
			c1.141,1.136,2.518,1.704,4.13,1.704s2.991-0.573,4.137-1.72c0.194-0.193,0.379-0.397,0.554-0.611l1.238,0.438
			c-0.146,0.242-0.452,0.592-0.918,1.049c-1.379,1.389-3.049,2.083-5.011,2.083c-1.942,0-3.605-0.692-4.989-2.076
			s-2.076-3.047-2.076-4.989c0-1.961,0.692-3.632,2.076-5.011s3.047-2.069,4.989-2.069c1.962,0,3.632,0.69,5.011,2.069
			c1.214,1.224,1.821,2.675,1.821,4.355H61.791z M62.01,26.668H73.11c-0.272-0.883-0.733-1.65-1.384-2.301
			c-1.146-1.146-2.525-1.719-4.137-1.719s-2.991,0.573-4.137,1.719C62.772,25.056,62.291,25.823,62.01,26.668z"/>
		<path fill="#E76D2C" d="M101.758,14.606v20.599h-1.166V15.859l-7.968,10.446l-7.983-10.446v19.346h-1.166V14.606h1.69l7.459,9.76
			l7.444-9.76H101.758z"/>
		<path fill="#E76D2C" d="M115.044,14.606v1.165h-9.134v8.551h9.134v1.166h-9.134v8.551h9.134v1.166h-10.3V14.606H115.044z"/>
		<path fill="#E76D2C" d="M123.914,14.606c3.389,0.02,6.016,0.966,7.881,2.84c2.059,2.069,3.088,4.555,3.088,7.459
			c0,2.923-1.029,5.415-3.088,7.473c-1.865,1.865-4.492,2.807-7.881,2.826h-3.817V14.606H123.914z M121.262,15.815v18.195h2.637
			c2.963,0,5.299-0.825,7.008-2.477c1.826-1.826,2.738-4.036,2.738-6.628c0-2.583-0.912-4.793-2.738-6.628
			c-1.709-1.641-4.045-2.462-7.008-2.462H121.262z"/>
		<path fill="#E76D2C" d="M139.208,35.205V14.606h1.165v19.433h7.853v1.166H139.208z"/>
		<path fill="#E76D2C" d="M162.705,14.606v1.165h-9.135v8.551h9.135v1.166h-9.135v8.551h9.135v1.166h-10.301V14.606H162.705z"/>
		<path fill="#E76D2C" d="M184.758,32.641c-1.951,1.875-4.287,2.813-7.007,2.813c-2.923,0-5.411-1.027-7.466-3.082
			c-2.055-2.054-3.081-4.542-3.081-7.465c0-2.904,1.026-5.388,3.081-7.452c2.055-2.063,4.543-3.096,7.466-3.096
			c2.72,0,5.085,0.918,7.095,2.753l-0.889,0.787c-1.768-1.563-3.836-2.345-6.206-2.345c-2.583,0-4.79,0.913-6.621,2.739
			s-2.746,4.03-2.746,6.614c0,2.592,0.915,4.802,2.746,6.628c1.831,1.825,4.038,2.739,6.621,2.739c2.214,0,4.167-0.68,5.856-2.04
			v-6.279h1.15V32.641z"/>
	</g>
	<g>
		<polygon fill="#C6E7B6" points="26.619,14.377 3.811,3.789 3.811,11.758 26.619,22.345 26.619,22.347 49.218,11.761 49.218,3.792 
					"/>
		<polygon fill="#C6E7B6" points="41.267,23.51 26.619,33.988 26.619,28.691 11.762,21.824 11.762,20.35 3.811,16.658 3.811,24.522 
			26.619,35.109 26.619,35.111 49.218,24.525 49.218,16.621 41.267,20.367 		"/>
		<polygon fill="#C6E7B6" points="41.267,35.542 26.619,46.021 26.619,40.723 11.762,33.859 11.762,32.382 3.811,28.689 
			3.811,36.555 26.619,47.141 26.619,47.144 49.218,36.557 49.218,28.652 41.267,32.398 		"/>
	</g>
	<g>
		<polygon fill="#E76D2C" points="26.619,14.377 3.811,3.789 3.811,11.758 26.619,22.345 26.619,22.347 		"/>
		<polygon fill="#E76D2C" points="26.619,35.111 26.619,35.109 3.811,24.522 3.811,16.658 11.762,20.35 11.762,21.824 
			26.619,28.691 		"/>
		<polygon fill="#E76D2C" points="26.619,40.723 11.762,33.859 11.762,32.382 3.811,28.689 3.811,36.555 26.619,47.141 
			26.619,47.144 		"/>
	</g>
	<g>
		<polygon fill="#78A34C" points="26.619,14.377 3.811,3.789 3.811,11.758 26.619,22.345 26.619,22.347 49.218,11.761 49.218,3.792 
					"/>
		<polygon fill="#78A34C" points="49.218,24.525 49.218,16.621 41.267,20.367 41.267,28.217 		"/>
		<polygon fill="#78A34C" points="11.762,21.824 11.762,20.35 3.811,16.658 3.811,24.522 11.754,28.213 		"/>
		<polygon fill="#78A34C" points="49.218,36.557 49.218,28.652 41.267,32.398 41.267,40.25 		"/>
		<polygon fill="#78A34C" points="11.762,33.859 11.762,32.382 3.811,28.689 3.811,36.555 11.754,40.245 		"/>
	</g>
	<g>
		<polygon fill="#8C4D12" points="26.619,14.377 3.811,3.789 3.811,11.758 26.619,22.345 26.619,22.347 		"/>
		<polygon fill="#8C4D12" points="11.762,21.824 11.762,20.35 3.811,16.658 3.811,24.521 11.754,28.213 		"/>
		<polygon fill="#8C4D12" points="11.762,33.859 11.762,32.382 3.811,28.689 3.811,36.555 11.754,40.244 		"/>
	</g>
</g>
</svg>
